<svg width="266" height="32" viewBox="0 0 266 32" fill="none" xmlns="http://www.w3.org/2000/svg">
<path d="M126.257 23.7357C124.822 23.6396 123.866 22.967 123.1 22.006L115.64 12.8769C117.457 12.4925 122.144 11.6276 122.144 6.82282C122.144 1.24925 116.214 0.48048 112.962 0.48048H103.014V1.15315C105.501 1.44144 106.075 1.72973 106.075 4.42042V20.0841C106.075 22.7748 105.979 23.5435 103.014 23.7357V24.4084H112.962V23.7357C110.092 23.5435 109.709 22.8709 109.709 20.4685V13.3574L111.718 13.2613L120.326 24.4084H126.161V23.7357H126.257ZM109.901 3.07508C109.901 2.01802 110.188 1.72973 112.101 1.72973C113.535 1.72973 118.318 1.82583 118.318 6.63063C118.318 11.8198 112.866 11.9159 109.901 11.9159V3.07508ZM137.256 24.4084H130.178V23.7357C133.43 23.5435 133.526 22.7748 133.526 20.0841V1.92192H131.613C127.691 1.92192 126.639 2.59459 125.874 6.53453H125.013L125.205 0.384384H137.256V24.4084ZM15.6864 24.4084H5.16505V23.7357C8.41712 23.5435 8.51276 22.7748 8.51276 20.0841V1.92192H6.59978C2.67817 1.92192 1.62603 2.59459 0.860841 6.53453H0L0.191298 0.384384H20.5645L20.7558 6.53453H19.895C19.1298 2.59459 18.1733 1.92192 14.1561 1.92192H12.2431V20.4685C12.2431 22.967 12.7213 23.6396 15.6864 23.7357V24.4084ZM21.808 23.7357C24.8688 23.5435 24.9644 22.7748 24.9644 20.0841V4.42042C24.9644 1.72973 24.4862 1.34535 21.808 1.15315V0.48048H31.8511V1.15315C29.173 1.34535 28.6947 1.82583 28.6947 4.42042V11.4354H39.5987V4.42042C39.5987 1.72973 39.1205 1.34535 36.4423 1.15315V0.48048H46.4854V1.15315C43.7116 1.34535 43.329 1.82583 43.329 4.42042V20.4685C43.329 22.8709 43.7116 23.5435 46.4854 23.7357V24.4084H36.4423V23.7357C39.5031 23.5435 39.5987 22.7748 39.5987 20.0841V12.973H28.6947V20.4685C28.6947 22.8709 29.0773 23.5435 31.8511 23.7357V24.4084H21.808V23.7357ZM67.3369 24.4084H47.9202V23.7357C50.2157 23.5435 51.0766 23.2553 51.0766 20.4685V4.42042C51.0766 1.53754 50.2157 1.34535 47.9202 1.15315V0.48048H67.05L67.1456 5.66967H66.2848C65.7109 2.4024 64.8501 1.82583 60.8328 1.82583H55.9547C55.1895 1.82583 54.8069 1.82583 54.8069 3.07508V11.1471H60.2589C63.511 11.1471 63.7979 10.2823 64.1805 7.68769H65.0414V16.048H64.1805C63.7023 13.1652 63.224 12.6847 60.2589 12.5886L54.7113 12.4925V21.4294C54.7113 22.8709 54.7113 22.967 60.0676 22.967C64.5631 22.967 66.3804 21.9099 68.0065 18.2583H69.0586L67.3369 24.4084ZM101.962 23.7357C100.336 23.6396 99.8576 23.2553 98.7098 20.5646L89.7188 0H88.9536L81.493 17.7778C80.8234 19.4114 79.6757 22.006 78.8148 22.967C78.1453 23.6396 77.5714 23.7357 76.9975 23.7357V24.4084H84.1712V23.7357C83.406 23.7357 81.6843 23.7357 81.6843 22.1982C81.6843 21.8138 81.7799 21.3333 81.9712 20.8529L83.5973 16.6246H93.0665L94.5013 20.0841C94.6926 20.5646 95.1708 21.8138 95.1708 22.3904C95.1708 23.7357 94.023 23.7357 92.6839 23.7357V24.4084H101.866V23.7357H101.962ZM84.2668 15.0871L88.3797 5.09309L92.5883 15.0871H84.2668Z" fill="#E3000F"/>
<path d="M158.682 0.480469H142.421V3.84383H158.682V0.480469Z" fill="white"/>
<path d="M158.682 10.7627H142.421V14.1261H158.682V10.7627Z" fill="white"/>
<path d="M158.682 21.0449H142.421V24.4083H158.682V21.0449Z" fill="white"/>
<path d="M166.812 17.0091L161.934 10.6667H165.664L168.725 14.7028L171.786 10.6667H175.612L170.638 17.0091L176.472 24.5046H172.647L168.725 19.3154L164.612 24.5046H160.69L166.812 17.0091Z" fill="white"/>
<path d="M188.429 15.5676C187.568 14.1261 186.133 13.2612 184.507 13.2612C182.498 13.2612 180.394 14.7988 180.394 17.6817C180.394 20.0841 182.02 22.1021 184.411 22.1021C185.942 22.1021 187.568 21.3333 188.429 19.7958V24.024C186.898 24.8889 185.655 25.0811 184.698 25.0811C182.307 25.0811 180.49 24.5045 179.151 22.967C178.003 21.7177 177.238 20.0841 177.238 17.7778C177.238 15.8558 177.812 13.9339 179.438 12.3964C181.159 10.7627 182.785 10.5706 184.698 10.5706C185.846 10.5706 187.185 10.6667 188.524 11.5315V15.5676H188.429Z" fill="white"/>
<path d="M190.724 0.672607H193.881V11.9159C195.22 10.4744 196.75 10.3783 197.515 10.3783C200.002 10.3783 201.15 11.7237 201.533 12.2041C202.393 13.4534 202.393 15.087 202.393 16.048V24.5044H199.237V16.3363C199.237 15.4714 199.237 14.6065 198.663 13.9339C198.28 13.5495 197.707 13.2612 196.846 13.2612C195.794 13.2612 194.933 13.7417 194.55 14.4144C194.072 15.087 193.881 16.1441 193.881 17.8738V24.5044H190.724V0.672607Z" fill="white"/>
<path d="M208.228 17.5856C208.228 19.988 209.758 22.006 212.054 22.006C214.063 22.006 215.88 20.5646 215.88 17.6817C215.88 14.7027 214.063 13.2613 212.054 13.2613C209.758 13.2613 208.228 15.1832 208.228 17.5856ZM215.689 10.6667H218.845V24.4084H215.689V23.0631C214.254 24.6967 212.532 24.8889 211.576 24.8889C207.367 24.8889 204.976 21.3334 204.976 17.5856C204.976 13.0691 208.037 10.3784 211.671 10.3784C212.723 10.3784 214.445 10.6667 215.689 12.3003V10.6667Z" fill="white"/>
<path d="M222.097 10.6666H225.253V11.9159C226.593 10.3783 228.219 10.2822 228.984 10.2822C231.566 10.2822 232.618 11.5315 233.001 12.1081C233.479 12.8768 233.862 13.8378 233.862 15.9519V24.4084H230.705V16.7207C230.705 13.2612 229.366 13.1651 228.219 13.1651C226.784 13.1651 225.349 13.3573 225.349 17.7777V24.4084H222.193V10.6666H222.097Z" fill="white"/>
<path d="M239.601 17.5857C239.601 19.9881 241.131 22.0061 243.427 22.0061C245.435 22.0061 247.253 20.5647 247.253 17.6818C247.253 14.7028 245.435 13.2614 243.427 13.2614C241.131 13.2614 239.601 15.1833 239.601 17.5857ZM247.062 10.6668H250.218V24.1202C250.218 25.946 250.218 27.7719 249.07 29.3094C248.018 30.7508 246.201 31.904 243.618 31.904C239.697 31.904 236.827 29.3094 237.018 25.1773H240.079C239.983 27.3875 241.418 29.0211 243.618 29.0211C246.966 29.0211 247.062 25.8499 247.062 24.6007V22.7749C245.627 24.5046 243.905 24.6968 242.949 24.6968C238.74 24.6968 236.349 21.2373 236.349 17.3935C236.349 12.877 239.41 10.1863 243.044 10.1863C244.383 10.1863 245.914 10.6668 247.062 12.0121V10.6668Z" fill="white"/>
<path d="M262.557 15.7597C262.174 14.2222 260.931 13.2612 259.4 13.2612C257.87 13.2612 256.626 14.3183 256.244 15.7597H262.557ZM266 20.8528C265.617 21.7177 264.948 22.5825 264.183 23.1591C262.844 24.3123 261.122 24.7927 259.591 24.7927C256.148 24.7927 252.8 22.5825 252.8 17.5855C252.8 13.2612 255.383 10.2822 259.496 10.2822C261.887 10.2822 263.704 11.4354 264.661 12.7807C265.809 14.5105 265.904 16.7207 265.904 17.7777V18.2582H256.053C256.148 20.7567 258.061 21.9099 259.783 21.9099C260.739 21.9099 261.409 21.6216 261.983 21.1411C262.557 20.7567 263.035 19.9879 263.417 19.2192L266 20.8528Z" fill="white"/>
</svg>
