<svg width="295" height="35" viewBox="0 0 295 35" fill="none" xmlns="http://www.w3.org/2000/svg">
<path d="M140.022 25.961C138.43 25.8559 137.37 25.1201 136.521 24.0691L128.247 14.0841C130.262 13.6637 135.46 12.7177 135.46 7.46246C135.46 1.36637 128.883 0.525526 125.277 0.525526H114.245V1.26126C117.003 1.57658 117.639 1.89189 117.639 4.83484V21.967C117.639 24.9099 117.533 25.7508 114.245 25.961V26.6967H125.277V25.961C122.095 25.7508 121.67 25.015 121.67 22.3874V14.6096L123.898 14.5045L133.445 26.6967H139.915V25.961H140.022ZM121.882 3.36336C121.882 2.20721 122.201 1.89189 124.322 1.89189C125.913 1.89189 131.217 1.997 131.217 7.25225C131.217 12.9279 125.171 13.033 121.882 13.033V3.36336ZM152.22 26.6967H144.371V25.961C147.977 25.7508 148.083 24.9099 148.083 21.967V2.1021H145.962C141.613 2.1021 140.446 2.83784 139.597 7.14715H138.643L138.855 0.42042H152.22V26.6967ZM17.3966 26.6967H5.72816V25.961C9.33477 25.7508 9.44085 24.9099 9.44085 21.967V2.1021H7.31931C2.97015 2.1021 1.80331 2.83784 0.954692 7.14715H0L0.212154 0.42042H22.8065L23.0187 7.14715H22.064C21.2154 2.83784 20.1546 2.1021 15.6994 2.1021H13.5778V22.3874C13.5778 25.1201 14.1082 25.8559 17.3966 25.961V26.6967ZM24.1855 25.961C27.58 25.7508 27.6861 24.9099 27.6861 21.967V4.83484C27.6861 1.89189 27.1557 1.47147 24.1855 1.26126V0.525526H35.3236V1.26126C32.3535 1.47147 31.8231 1.997 31.8231 4.83484V12.5075H43.9159V4.83484C43.9159 1.89189 43.3855 1.47147 40.4153 1.26126V0.525526H51.5534V1.26126C48.4772 1.47147 48.0529 1.997 48.0529 4.83484V22.3874C48.0529 25.015 48.4772 25.7508 51.5534 25.961V26.6967H40.4153V25.961C43.8098 25.7508 43.9159 24.9099 43.9159 21.967V14.1892H31.8231V22.3874C31.8231 25.015 32.2474 25.7508 35.3236 25.961V26.6967H24.1855V25.961ZM74.6782 26.6967H53.1445V25.961C55.6904 25.7508 56.6451 25.4354 56.6451 22.3874V4.83484C56.6451 1.68168 55.6904 1.47147 53.1445 1.26126V0.525526H74.3599L74.466 6.2012H73.5113C72.8749 2.62763 71.9202 1.997 67.4649 1.997H62.055C61.2064 1.997 60.7821 1.997 60.7821 3.36336V12.1922H66.8285C70.4351 12.1922 70.7533 11.2462 71.1776 8.40841H72.1323V17.5526H71.1776C70.6472 14.3994 70.1169 13.8739 66.8285 13.7688L60.676 13.6637V23.4384C60.676 25.015 60.676 25.1201 66.6163 25.1201C71.6019 25.1201 73.6174 23.964 75.4207 19.97H76.5875L74.6782 26.6967ZM113.078 25.961C111.275 25.8559 110.744 25.4354 109.471 22.4925L99.5002 0H98.6516L90.3776 19.4444C89.635 21.2312 88.3621 24.0691 87.4074 25.1201C86.6649 25.8559 86.0284 25.961 85.3919 25.961V26.6967H93.3477V25.961C92.4991 25.961 90.5897 25.961 90.5897 24.2793C90.5897 23.8589 90.6958 23.3333 90.9079 22.8078L92.7113 18.1832H103.213L104.804 21.967C105.016 22.4925 105.547 23.8589 105.547 24.4895C105.547 25.961 104.274 25.961 102.789 25.961V26.6967H112.972V25.961H113.078ZM93.4538 16.5015L98.0151 5.57057L102.682 16.5015H93.4538Z" fill="#E3000F"/>
<path d="M175.982 0.525635H157.949V4.20431H175.982V0.525635Z" fill="#121212"/>
<path d="M175.982 11.7717H157.949V15.4504H175.982V11.7717Z" fill="#121212"/>
<path d="M175.982 23.0181H157.949V26.6967H175.982V23.0181Z" fill="#121212"/>
<path d="M184.998 18.6037L179.588 11.6667H183.725L187.12 16.0812L190.514 11.6667H194.757L189.241 18.6037L195.712 26.8019H191.469L187.12 21.1262L182.558 26.8019H178.209L184.998 18.6037Z" fill="#121212"/>
<path d="M208.972 17.027C208.017 15.4504 206.426 14.5045 204.622 14.5045C202.395 14.5045 200.061 16.1861 200.061 19.3393C200.061 21.9669 201.864 24.1741 204.516 24.1741C206.214 24.1741 208.017 23.3333 208.972 21.6516V26.2762C207.274 27.2222 205.895 27.4324 204.835 27.4324C202.183 27.4324 200.167 26.8018 198.682 25.1201C197.409 23.7537 196.561 21.9669 196.561 19.4444C196.561 17.3423 197.197 15.2402 199 13.5585C200.91 11.7717 202.713 11.5615 204.835 11.5615C206.108 11.5615 207.593 11.6666 209.078 12.6126V17.027H208.972Z" fill="#121212"/>
<path d="M211.517 0.73584H215.018V13.0331C216.503 11.4566 218.2 11.3515 219.049 11.3515C221.807 11.3515 223.08 12.8229 223.504 13.3485C224.459 14.7148 224.459 16.5016 224.459 17.5527V26.8019H220.958V17.868C220.958 16.922 220.958 15.9761 220.322 15.2403C219.898 14.8199 219.261 14.5046 218.306 14.5046C217.14 14.5046 216.185 15.0301 215.761 15.7659C215.23 16.5016 215.018 17.6578 215.018 19.5497V26.8019H211.517V0.73584Z" fill="#121212"/>
<path d="M230.93 19.2342C230.93 21.8618 232.627 24.069 235.173 24.069C237.4 24.069 239.416 22.4925 239.416 19.3393C239.416 16.081 237.4 14.5045 235.173 14.5045C232.627 14.5045 230.93 16.6066 230.93 19.2342ZM239.204 11.6666H242.704V26.6967H239.204V25.2252C237.612 27.012 235.703 27.2222 234.642 27.2222C229.975 27.2222 227.323 23.3333 227.323 19.2342C227.323 14.2943 230.717 11.3513 234.748 11.3513C235.915 11.3513 237.825 11.6666 239.204 13.4534V11.6666Z" fill="#121212"/>
<path d="M246.311 11.6668H249.811V13.0331C251.296 11.3514 253.1 11.2463 253.948 11.2463C256.812 11.2463 257.979 12.6127 258.403 13.2433C258.934 14.0842 259.358 15.1352 259.358 17.4475V26.6968H255.858V18.2884C255.858 14.5046 254.373 14.3995 253.1 14.3995C251.508 14.3995 249.917 14.6097 249.917 19.4445V26.6968H246.417V11.6668H246.311Z" fill="#121212"/>
<path d="M265.723 19.2342C265.723 21.8618 267.42 24.069 269.966 24.069C272.193 24.069 274.209 22.4925 274.209 19.3393C274.209 16.0811 272.193 14.5045 269.966 14.5045C267.42 14.5045 265.723 16.6066 265.723 19.2342ZM273.997 11.6666H277.497V26.3814C277.497 28.3784 277.497 30.3753 276.224 32.057C275.057 33.6336 273.042 34.8949 270.178 34.8949C265.829 34.8949 262.646 32.057 262.859 27.5375H266.253C266.147 29.9549 267.738 31.7417 270.178 31.7417C273.891 31.7417 273.997 28.2732 273.997 26.9069V24.9099C272.406 26.8018 270.496 27.012 269.435 27.012C264.768 27.012 262.116 23.2282 262.116 19.024C262.116 14.0841 265.511 11.1411 269.541 11.1411C271.027 11.1411 272.724 11.6666 273.997 13.1381V11.6666Z" fill="#121212"/>
<path d="M291.181 17.2373C290.757 15.5556 289.378 14.5046 287.681 14.5046C285.983 14.5046 284.604 15.6608 284.18 17.2373H291.181ZM295 22.8079C294.576 23.7538 293.833 24.6998 292.985 25.3304C291.499 26.5917 289.59 27.1172 287.893 27.1172C284.074 27.1172 280.361 24.6998 280.361 19.2343C280.361 14.5046 283.225 11.2463 287.787 11.2463C290.439 11.2463 292.454 12.5076 293.515 13.9791C294.788 15.871 294.894 18.2884 294.894 19.4445V19.9701H283.968C284.074 22.7028 286.196 23.9641 288.105 23.9641C289.166 23.9641 289.908 23.6487 290.545 23.1232C291.181 22.7028 291.712 21.862 292.136 21.0211L295 22.8079Z" fill="#121212"/>
</svg>
