<svg width="30" height="31" viewBox="0 0 30 31" fill="none" xmlns="http://www.w3.org/2000/svg">
<path d="M15 30.5C23.2843 30.5 30 23.7843 30 15.5C30 7.21573 23.2843 0.5 15 0.5C6.71573 0.5 0 7.21573 0 15.5C0 23.7843 6.71573 30.5 15 30.5Z" fill="#D2D2D3"/>
<path d="M8.77871 11.9206C8.79735 11.7371 8.72713 11.5558 8.58964 11.4323L7.18908 9.75113V9.5H11.5378L14.8992 16.8454L17.8543 9.5H22V9.75113L20.8025 10.8951C20.6993 10.9736 20.6481 11.1024 20.6695 11.23V19.6357C20.6481 19.7632 20.6993 19.8921 20.8025 19.9705L21.972 21.1145V21.3657H16.0896V21.1145L17.3011 19.9426C17.4202 19.824 17.4202 19.7892 17.4202 19.6078V12.8135L14.0518 21.3378H13.5966L9.67507 12.8135V18.5266C9.64237 18.7668 9.72243 19.0086 9.89216 19.1823L11.4678 21.0866V21.3378H7V21.0866L8.57563 19.1823C8.74412 19.0083 8.81951 18.7649 8.77871 18.5266V11.9206Z" fill="black"/>
</svg>
