<svg width="30" height="31" viewBox="0 0 30 31" fill="none" xmlns="http://www.w3.org/2000/svg">
<path d="M15 30.5C23.2843 30.5 30 23.7843 30 15.5C30 7.21573 23.2843 0.5 15 0.5C6.71573 0.5 0 7.21573 0 15.5C0 23.7843 6.71573 30.5 15 30.5Z" fill="#D2D2D3"/>
<path fill-rule="evenodd" clip-rule="evenodd" d="M21.8709 9.76277C21.4475 10.034 20.4754 10.428 19.996 10.428V10.4288C19.4486 9.857 18.6779 9.5 17.8232 9.5C16.1632 9.5 14.8172 10.8461 14.8172 12.5054C14.8172 12.736 14.8439 12.9609 14.8933 13.1765H14.8928C12.641 13.1174 10.1783 11.9888 8.6957 10.0571C7.78418 11.6349 8.57298 13.3896 9.60739 14.029C9.2533 14.0557 8.60147 13.9882 8.29466 13.6888C8.2741 14.736 8.77762 16.1235 10.6136 16.6269C10.26 16.8171 9.6341 16.7626 9.36194 16.7221C9.45746 17.6061 10.6954 18.7618 12.0491 18.7618C11.5666 19.3198 9.75132 20.3321 7.71423 20.01C9.09771 20.8518 10.7101 21.3393 12.4168 21.3393C17.2666 21.3393 21.033 17.4087 20.8303 12.5598C20.8295 12.5545 20.8295 12.5492 20.829 12.5433C20.8295 12.5309 20.8303 12.5184 20.8303 12.5054C20.8303 12.4904 20.829 12.4761 20.8285 12.4616C21.27 12.1596 21.8624 11.6255 22.2857 10.9225C22.0402 11.0577 21.3039 11.3284 20.6187 11.3956C21.0584 11.1582 21.7099 10.3809 21.8709 9.76277Z" fill="black"/>
</svg>
