<svg width="30" height="31" viewBox="0 0 30 31" fill="none" xmlns="http://www.w3.org/2000/svg">
<path d="M0 15.5C0 7.21573 6.71573 0.5 15 0.5C23.2843 0.5 30 7.21573 30 15.5C30 23.7843 23.2843 30.5 15 30.5C6.71573 30.5 0 23.7843 0 15.5Z" fill="#D2D2D3"/>
<path fill-rule="evenodd" clip-rule="evenodd" d="M22.4656 12.4807C22.4656 12.4807 22.623 13.804 22.623 15.1269V16.3675C22.623 17.6909 22.4656 19.0137 22.4656 19.0137C22.4656 19.0137 22.3116 20.1404 21.84 20.6365C21.2415 21.288 20.5707 21.291 20.2633 21.3293C18.061 21.4949 14.7541 21.5 14.7541 21.5C14.7541 21.5 10.6623 21.4612 9.40329 21.3355C9.05312 21.2675 8.26673 21.288 7.66771 20.6365C7.19607 20.1404 7.04263 19.0137 7.04263 19.0137C7.04263 19.0137 6.88525 17.6909 6.88525 16.3675V15.1269C6.88525 13.804 7.04263 12.4807 7.04263 12.4807C7.04263 12.4807 7.19607 11.354 7.66771 10.8579C8.26673 10.2064 8.93706 10.2034 9.24493 10.1655C11.4472 10 14.7507 10 14.7507 10H14.7575C14.7575 10 18.061 10 20.2633 10.1655C20.5707 10.2034 21.2415 10.2064 21.84 10.8579C22.3116 11.354 22.4656 12.4807 22.4656 12.4807ZM13.1292 17.8707L17.3808 15.5816L13.1287 13.2767L13.1292 17.8707Z" fill="black"/>
</svg>
